####
#
# OBJ File Generated by Meshlab
#
####
# Object plug_no_end.obj
#
# Vertices: 16
# Faces: 28
#
####
vn -0.571812 -0.418186 0.705799
v -3.479578 -1.000217 0.838117
vn 0.450649 0.892701 -0.000000
v -0.005840 2.011951 -0.196813
vn 0.000102 0.271047 0.962566
v -1.004713 1.000712 0.839659
vn -0.166908 0.985972 -0.000000
v -1.006528 2.011951 -0.196813
vn 0.000148 0.255031 -0.966933
v -1.004713 1.000712 -1.164200
vn -0.000135 -0.324593 -0.945854
v -1.004713 -1.003190 -1.165650
vn 0.891274 0.086381 -0.445161
v -0.004024 1.000711 -1.164200
vn -0.495045 0.616725 0.612030
v -3.479578 1.002834 0.839568
vn 0.762389 0.131005 0.633720
v -0.004024 1.000711 0.839659
vn -0.168207 -0.985752 0.000418
v -1.006528 -2.013568 -0.129774
vn 0.953735 -0.092362 0.286110
v -0.004024 -1.002339 0.838209
vn -0.000165 -0.306169 0.951977
v -1.004713 -1.002339 0.838208
vn 0.450499 -0.892777 0.000379
v -0.005839 -2.013568 -0.129774
vn -0.692239 0.506540 -0.514026
v -3.479578 1.002834 -1.164291
vn 0.884272 -0.152052 -0.441524
v -0.004024 -1.003190 -1.165650
vn -0.384620 -0.477804 -0.789791
v -3.479578 -1.001068 -1.165741
# 16 vertices, 0 vertices normals

f 5//5 2//2 7//7
f 16//16 6//6 10//10
f 1//1 16//16 10//10
f 5//5 4//4 2//2
f 7//7 9//9 11//11
f 13//13 15//15 11//11
f 14//14 4//4 5//5
f 14//14 1//1 8//8
f 13//13 11//11 12//12
f 9//9 12//12 11//11
f 13//13 6//6 15//15
f 9//9 3//3 12//12
f 7//7 11//11 15//15
f 2//2 9//9 7//7
f 1//1 3//3 8//8
f 2//2 3//3 9//9
f 14//14 5//5 16//16
f 4//4 8//8 3//3
f 14//14 8//8 4//4
f 1//1 12//12 3//3
f 5//5 6//6 16//16
f 1//1 10//10 12//12
f 2//2 4//4 3//3
f 7//7 15//15 6//6
f 14//14 16//16 1//1
f 13//13 10//10 6//6
f 5//5 7//7 6//6
f 13//13 12//12 10//10
# 28 faces, 0 coords texture

# End of File